/* XPM */
static const char * empty_xpm[] = {
"16 16 144 2",
"  	c None",
". 	c #96907F",
"+ 	c #A79E88",
"@ 	c #A49782",
"# 	c #9C907C",
"$ 	c #968D7A",
"% 	c #9A917E",
"& 	c #848375",
"* 	c #968E7C",
"= 	c #B2A58E",
"- 	c #D1CCC3",
"; 	c #E5E7E8",
"> 	c #E6EAEC",
", 	c #DDE1E3",
"' 	c #DBDDDE",
") 	c #D4D1C9",
"! 	c #8E8676",
"~ 	c #7A796F",
"{ 	c #958D7A",
"] 	c #BCB29E",
"^ 	c #E4E4E3",
"/ 	c #E3E6E7",
"( 	c #DAE0E4",
"_ 	c #D8DDE0",
": 	c #DADEDF",
"< 	c #E4E6E7",
"[ 	c #E4E7E9",
"} 	c #DBDBD9",
"| 	c #9C9784",
"1 	c #70706A",
"2 	c #8C8B7B",
"3 	c #A09782",
"4 	c #E2E2E1",
"5 	c #DBDFDF",
"6 	c #D6DBDB",
"7 	c #D6DDE3",
"8 	c #D4DBE2",
"9 	c #D5DADD",
"0 	c #DADDDE",
"a 	c #DBDEDF",
"b 	c #DEE1E4",
"c 	c #C9CAC8",
"d 	c #838072",
"e 	c #9A9583",
"f 	c #C6C3B9",
"g 	c #D8DADA",
"h 	c #C7CECF",
"i 	c #CCD3D6",
"j 	c #CFD7DD",
"k 	c #CCD4D9",
"l 	c #D5DBDB",
"m 	c #CFD2D2",
"n 	c #CCCFCE",
"o 	c #CED2D2",
"p 	c #A9A898",
"q 	c #696969",
"r 	c #938D7C",
"s 	c #B6B8B6",
"t 	c #B7BCBB",
"u 	c #BEC4C6",
"v 	c #C1C9CA",
"w 	c #C3CACE",
"x 	c #C2CACD",
"y 	c #DFE3E4",
"z 	c #D5D9DA",
"A 	c #CED2D1",
"B 	c #C5C9C9",
"C 	c #B5B8B3",
"D 	c #838174",
"E 	c #BCC1C0",
"F 	c #BCC0C0",
"G 	c #B8BFBF",
"H 	c #B5BCBE",
"I 	c #B7BEC1",
"J 	c #BBC2C5",
"K 	c #DBE0E2",
"L 	c #D5DADA",
"M 	c #C9CECC",
"N 	c #BFC3C2",
"O 	c #9DA5A2",
"P 	c #767970",
"Q 	c #9CA7A6",
"R 	c #C6C9C9",
"S 	c #CED2D3",
"T 	c #BABFBF",
"U 	c #A7B2B3",
"V 	c #A1AFB1",
"W 	c #B6BBBB",
"X 	c #B5BAB7",
"Y 	c #CACFCF",
"Z 	c #C7CACA",
"` 	c #B7BAB8",
" .	c #8C9894",
"..	c #9AA4A1",
"+.	c #C4C7C7",
"@.	c #CCCFCF",
"#.	c #CCD1CF",
"$.	c #B7BDBB",
"%.	c #9CA9A8",
"&.	c #9BA6A5",
"*.	c #94A1A0",
"=.	c #C8CACA",
"-.	c #C4C9C9",
";.	c #A5ABA7",
">.	c #7E8C87",
",.	c #70716B",
"'.	c #7F8880",
").	c #A6AEA8",
"!.	c #C6CACA",
"~.	c #C8CDCC",
"{.	c #A3A9A5",
"].	c #94A09E",
"^.	c #8C9A98",
"/.	c #BDC0BE",
"(.	c #C0C6C5",
"_.	c #939C96",
":.	c #6F746F",
"<.	c #72736D",
"[.	c #88938E",
"}.	c #C5CACA",
"|.	c #BEC0BF",
"1.	c #8D9893",
"2.	c #8E9B97",
"3.	c #8D9A96",
"4.	c #889693",
"5.	c #B3B8B6",
"6.	c #B8BEBD",
"7.	c #737F79",
"8.	c #70736D",
"9.	c #ABAFA7",
"0.	c #979E99",
"a.	c #83918E",
"b.	c #86928F",
"c.	c #85918C",
"d.	c #82908D",
"e.	c #8A938C",
"f.	c #7E837A",
"g.	c #72716A",
"h.	c #757C75",
"i.	c #7D8A85",
"j.	c #80908D",
"k.	c #7E8D89",
"l.	c #78857F",
"m.	c #6C716C",
"                                ",
"        . + @ # $ % &           ",
"      * = - ; > , ' ) ! ~       ",
"    { ] ^ / ( _ : < [ } | 1     ",
"  2 3 4 5 6 7 8 9 0 a b c d     ",
"  e f g h i j k l a m n o p q   ",
"  r s t u v w x y 5 z A B C q   ",
"  D E F G H I J K L m M N O q   ",
"  P Q R S T U V W X Y Z `  .q   ",
"  P ..+.@.#.$.%.&.*.=.-.;.>.q   ",
"  ,.'.).!.~.{.].].^./.(._.:.q   ",
"    <.[.}.|.1.2.3.4.5.6.7.q     ",
"    q 8.9.0.a.b.c.d.e.f.q q     ",
"      q g.h.i.j.k.l.m.q q       ",
"          q q q q q q           ",
"                                "};
